<?xml version="1.0" encoding="UTF-8" standalone="no"?>
<svg
   xmlns:dc="http://purl.org/dc/elements/1.1/"
   xmlns:cc="http://creativecommons.org/ns#"
   xmlns:rdf="http://www.w3.org/1999/02/22-rdf-syntax-ns#"
   xmlns:svg="http://www.w3.org/2000/svg"
   xmlns="http://www.w3.org/2000/svg"
   xmlns:sodipodi="http://sodipodi.sourceforge.net/DTD/sodipodi-0.dtd"
   xmlns:inkscape="http://www.inkscape.org/namespaces/inkscape"
   height="512pt"
   viewBox="-66 0 512 512.25735"
   width="512pt"
   version="1.1"
   id="svg26"
   sodipodi:docname="rollover_toopen.svg"
   inkscape:version="1.0.2-2 (e86c870879, 2021-01-15)">
  <metadata
     id="metadata32">
    <rdf:RDF>
      <cc:Work
         rdf:about="">
        <dc:format>image/svg+xml</dc:format>
        <dc:type
           rdf:resource="http://purl.org/dc/dcmitype/StillImage" />
        <dc:title></dc:title>
      </cc:Work>
    </rdf:RDF>
  </metadata>
  <defs
     id="defs30" />
  <sodipodi:namedview
     pagecolor="#ffffff"
     bordercolor="#666666"
     borderopacity="1"
     objecttolerance="10"
     gridtolerance="10"
     guidetolerance="10"
     inkscape:pageopacity="0"
     inkscape:pageshadow="2"
     inkscape:window-width="1920"
     inkscape:window-height="1017"
     id="namedview28"
     showgrid="false"
     inkscape:zoom="0.62214412"
     inkscape:cx="88.628983"
     inkscape:cy="71.765947"
     inkscape:window-x="-8"
     inkscape:window-y="-8"
     inkscape:window-maximized="1"
     inkscape:current-layer="svg26"
     showguides="true"
     inkscape:guide-bbox="true"
     inkscape:document-rotation="0">
    <sodipodi:guide
       position="337.54236,255.69624"
       orientation="0,1"
       id="guide119"
       inkscape:locked="false" />
  </sodipodi:namedview>
  <path
     id="path60"
     style="fill:#000000;stroke-width:0.750377"
     d="M 190.00048,455.74115 A 199.61192,199.61192 0 0 1 -9.6115137,256.12916 199.61192,199.61192 0 0 1 190.00048,56.517161 a 199.61192,199.61192 0 0 1 199.612,199.611999 199.61192,199.61192 0 0 1 -199.612,199.61199 z m 0,-38.59458 A 161.01626,161.01626 0 0 0 351.01643,256.12916 161.01626,161.01626 0 0 0 190.00048,95.113213 161.01626,161.01626 0 0 0 28.983068,256.12916 161.01626,161.01626 0 0 0 190.00048,417.14657 Z m 0,-62.98037 c -0.64428,0 -1.28833,-0.19527 -1.78215,-0.58477 L 61.87215,253.92786 h 256.25667 l -126.3462,99.65357 c -0.4938,0.3895 -1.13785,0.58477 -1.78214,0.58477 z" />
  <g
     aria-label="?"
     transform="scale(1.0485465,0.95370115)"
     style="font-style:normal;font-weight:normal;font-size:382.0486145px;line-height:1.25;font-family:sans-serif;letter-spacing:0px;word-spacing:0px;fill:#000000;fill-opacity:1;stroke:none;stroke-width:9.55121422"
     id="text88" />
</svg>
