<?xml version="1.0" encoding="UTF-8" standalone="no"?>
<svg
   xmlns:dc="http://purl.org/dc/elements/1.1/"
   xmlns:cc="http://creativecommons.org/ns#"
   xmlns:rdf="http://www.w3.org/1999/02/22-rdf-syntax-ns#"
   xmlns:svg="http://www.w3.org/2000/svg"
   xmlns="http://www.w3.org/2000/svg"
   xmlns:sodipodi="http://sodipodi.sourceforge.net/DTD/sodipodi-0.dtd"
   xmlns:inkscape="http://www.inkscape.org/namespaces/inkscape"
   height="512pt"
   viewBox="-66 0 512 512.25735"
   width="512pt"
   version="1.1"
   id="svg26"
   sodipodi:docname="rollover_toclose.svg"
   inkscape:version="1.0.2-2 (e86c870879, 2021-01-15)">
  <metadata
     id="metadata32">
    <rdf:RDF>
      <cc:Work
         rdf:about="">
        <dc:format>image/svg+xml</dc:format>
        <dc:type
           rdf:resource="http://purl.org/dc/dcmitype/StillImage" />
        <dc:title />
      </cc:Work>
    </rdf:RDF>
  </metadata>
  <defs
     id="defs30" />
  <sodipodi:namedview
     pagecolor="#ffffff"
     bordercolor="#666666"
     borderopacity="1"
     objecttolerance="10"
     gridtolerance="10"
     guidetolerance="10"
     inkscape:pageopacity="0"
     inkscape:pageshadow="2"
     inkscape:window-width="1920"
     inkscape:window-height="1017"
     id="namedview28"
     showgrid="false"
     inkscape:zoom="0.62214412"
     inkscape:cx="88.628983"
     inkscape:cy="71.765947"
     inkscape:window-x="-8"
     inkscape:window-y="-8"
     inkscape:window-maximized="1"
     inkscape:current-layer="svg26"
     showguides="true"
     inkscape:guide-bbox="true"
     inkscape:document-rotation="0">
    <sodipodi:guide
       position="337.54236,255.69624"
       orientation="0,1"
       id="guide119"
       inkscape:locked="false" />
  </sodipodi:namedview>
  <path
     id="path60"
     style="fill:#000000;stroke-width:1"
     d="M 341.33398 75.318359 A 266.01553 266.01553 0 0 0 75.318359 341.33398 A 266.01553 266.01553 0 0 0 341.33398 607.34961 A 266.01553 266.01553 0 0 0 607.34961 341.33398 A 266.01553 266.01553 0 0 0 341.33398 75.318359 z M 341.33398 126.75195 A 214.5805 214.5805 0 0 1 555.91406 341.33398 A 214.5805 214.5805 0 0 1 341.33398 555.91406 A 214.5805 214.5805 0 0 1 126.75195 341.33398 A 214.5805 214.5805 0 0 1 341.33398 126.75195 z M 341.33398 210.68359 C 340.47537 210.68359 339.61707 210.94382 338.95898 211.46289 L 170.58203 344.26758 L 512.08594 344.26758 L 343.70898 211.46289 C 343.05091 210.94382 342.1926 210.68359 341.33398 210.68359 z "
     transform="matrix(0.75037696,0,0,0.75037696,-66.128675,0)" />
  <g
     aria-label="?"
     transform="scale(1.0485465,0.95370115)"
     style="font-style:normal;font-weight:normal;font-size:382.0486145px;line-height:1.25;font-family:sans-serif;letter-spacing:0px;word-spacing:0px;fill:#000000;fill-opacity:1;stroke:none;stroke-width:9.55121422"
     id="text88" />
</svg>
